<?xml version="1.0" standalone="no"?>
<!DOCTYPE svg PUBLIC "-//W3C//DTD SVG 20010904//EN"
 "http://www.w3.org/TR/2001/REC-SVG-20010904/DTD/svg10.dtd">
<svg version="1.0" xmlns="http://www.w3.org/2000/svg"
 width="512.000000pt" height="512.000000pt" viewBox="0 0 512.000000 512.000000"
 preserveAspectRatio="xMidYMid meet">

<g transform="translate(0.000000,512.000000) scale(0.100000,-0.100000)"
fill="#000000" stroke="none">
<path d="M3195 5114 c-627 -69 -1159 -443 -1427 -1004 -100 -210 -168 -501
-168 -720 0 -51 4 -65 25 -85 31 -32 78 -33 109 -2 20 20 23 36 29 137 29 539
316 1014 779 1293 183 110 396 183 616 212 672 89 1337 -269 1637 -880 57
-117 117 -299 141 -430 26 -139 26 -411 0 -550 -116 -630 -572 -1120 -1186
-1275 -90 -23 -120 -35 -137 -55 -27 -31 -28 -46 -8 -85 21 -41 55 -47 155
-26 406 83 799 344 1056 701 73 102 190 330 229 450 65 193 75 266 75 558 0
297 -10 373 -71 559 -42 130 -156 355 -236 467 -265 370 -671 629 -1118 712
-107 20 -402 33 -500 23z"/>
<path d="M3149 4781 c-23 -18 -24 -26 -29 -171 l-5 -152 -54 -19 c-177 -62
-327 -219 -388 -403 -36 -112 -38 -267 -4 -376 56 -182 186 -330 355 -405 87
-39 138 -47 313 -54 142 -5 165 -9 189 -27 53 -39 69 -71 69 -134 0 -63 -16
-95 -69 -134 -26 -20 -44 -21 -369 -26 -387 -6 -385 -5 -456 -86 -87 -99 -82
-224 14 -319 65 -66 99 -75 269 -75 l136 0 0 -135 c0 -131 1 -137 25 -160 24
-25 26 -25 215 -25 189 0 191 0 215 25 24 23 25 28 25 170 0 130 2 146 18 151
324 102 515 422 447 749 -45 219 -224 412 -445 480 -38 12 -109 19 -227 24
-152 5 -175 8 -199 27 -53 39 -69 71 -69 134 0 63 16 95 69 134 26 20 44 21
369 26 387 6 385 5 453 83 90 102 86 226 -11 322 -65 66 -99 75 -269 75 l-136
0 0 135 c0 131 -1 137 -25 160 -24 25 -26 25 -213 25 -172 0 -192 -2 -213 -19z
m291 -276 c0 -131 1 -137 25 -160 24 -25 26 -25 215 -25 189 0 191 0 215 -25
30 -29 32 -74 6 -106 l-19 -24 -344 -5 c-340 -5 -343 -5 -393 -30 -64 -31
-124 -92 -155 -155 -33 -69 -34 -199 -2 -265 35 -71 75 -114 144 -150 62 -33
65 -34 233 -41 192 -8 241 -19 331 -77 76 -50 128 -109 170 -197 134 -279 -27
-604 -334 -675 -84 -19 -92 -36 -92 -196 l0 -134 -80 0 -80 0 0 135 c0 131 -1
137 -25 160 -24 25 -26 25 -215 25 -189 0 -191 0 -215 25 -30 29 -32 74 -6
106 l19 24 344 5 343 5 63 34 c70 38 101 70 140 145 22 43 26 64 26 136 1 78
-2 90 -33 148 -38 69 -80 110 -151 144 -38 18 -71 22 -215 29 -192 8 -241 19
-331 77 -76 50 -128 109 -170 197 -134 279 27 604 334 675 84 19 92 36 92 196
l0 134 80 0 80 0 0 -135z"/>
<path d="M1145 4215 c-21 -20 -25 -34 -25 -80 l0 -55 -55 0 c-67 0 -105 -29
-105 -80 0 -51 38 -80 105 -80 l55 0 0 -55 c0 -67 29 -105 80 -105 51 0 80 38
80 105 l0 55 55 0 c67 0 105 29 105 80 0 51 -38 80 -105 80 l-55 0 0 55 c0 67
-29 105 -80 105 -19 0 -40 -9 -55 -25z"/>
<path d="M1553 3185 c-26 -18 -31 -33 -218 -685 -116 -403 -142 -483 -172
-530 -40 -61 -124 -145 -172 -173 l-31 -18 0 46 c0 35 -6 52 -25 70 l-24 25
-431 0 -431 0 -24 -25 -25 -24 0 -911 0 -911 25 -24 24 -25 431 0 431 0 24 25
c18 18 25 35 25 65 0 22 3 40 6 40 4 0 107 -29 230 -65 l224 -66 728 3 727 3
57 28 c72 35 141 111 163 178 31 93 15 224 -34 289 l-19 24 45 40 c68 60 103
140 103 237 0 67 -4 85 -33 141 l-32 65 44 38 c66 58 101 140 101 236 0 66 -4
85 -33 141 l-32 65 47 42 c26 23 59 67 75 99 24 48 28 69 28 137 -1 72 -4 87
-35 143 -36 68 -78 109 -150 144 -45 23 -47 23 -603 26 l-559 3 6 37 c35 219
67 526 62 593 -20 243 -157 418 -371 474 -75 19 -125 19 -152 0z m170 -175
c69 -33 114 -76 147 -144 57 -116 58 -157 11 -528 -22 -179 -41 -335 -41 -346
0 -11 9 -30 19 -43 l19 -24 610 -5 c597 -5 611 -5 638 -26 53 -39 69 -71 69
-134 0 -63 -16 -95 -69 -134 -25 -20 -45 -21 -278 -26 -248 -5 -250 -5 -269
-29 -24 -30 -24 -72 0 -102 19 -24 23 -24 229 -29 230 -5 236 -7 286 -74 29
-39 29 -133 0 -172 -51 -68 -51 -69 -326 -74 -248 -5 -250 -5 -269 -29 -24
-30 -24 -72 0 -102 19 -24 23 -24 229 -29 230 -5 236 -7 286 -74 29 -39 29
-133 0 -172 -51 -68 -51 -69 -326 -74 -248 -5 -250 -5 -269 -29 -24 -30 -24
-72 0 -102 19 -24 23 -24 229 -29 193 -5 213 -7 238 -26 53 -39 69 -71 69
-134 0 -63 -16 -95 -69 -134 -27 -21 -38 -21 -732 -24 l-704 -2 -177 50 c-98
28 -208 60 -245 71 l-68 20 0 652 1 652 79 37 c98 47 180 121 254 231 l56 82
150 525 c82 289 152 531 155 538 6 17 18 15 68 -8z m-923 -2050 l0 -800 -320
0 -320 0 0 800 0 800 320 0 320 0 0 -800z"/>
<path d="M4105 1255 c-21 -20 -25 -34 -25 -80 l0 -55 -55 0 c-67 0 -105 -29
-105 -80 0 -51 38 -80 105 -80 l55 0 0 -55 c0 -67 29 -105 80 -105 51 0 80 38
80 105 l0 55 55 0 c67 0 105 29 105 80 0 51 -38 80 -105 80 l-55 0 0 55 c0 67
-29 105 -80 105 -19 0 -40 -9 -55 -25z"/>
</g>
</svg>
