<?xml version="1.0" standalone="no"?>
<!DOCTYPE svg PUBLIC "-//W3C//DTD SVG 20010904//EN"
 "http://www.w3.org/TR/2001/REC-SVG-20010904/DTD/svg10.dtd">
<svg version="1.0" xmlns="http://www.w3.org/2000/svg"
 width="512.000000pt" height="512.000000pt" viewBox="0 0 512.000000 512.000000"
 preserveAspectRatio="xMidYMid meet">

<g transform="translate(0.000000,512.000000) scale(0.100000,-0.100000)"
fill="#000000" stroke="none">
<path d="M2939 5107 c-93 -35 -174 -114 -233 -227 -60 -116 -96 -253 -146
-547 -16 -95 -31 -177 -34 -182 -3 -4 -25 -11 -48 -14 -40 -6 -1004 -369
-1071 -404 -52 -26 -85 -54 -111 -92 -22 -32 -1054 -2508 -1086 -2605 -17 -52
-8 -153 19 -209 46 -95 100 -130 363 -236 127 -51 145 -54 181 -23 22 20 22
77 -1 100 -10 10 -92 48 -182 86 -91 37 -176 77 -189 89 -29 27 -51 77 -51
117 0 17 227 578 529 1307 396 954 537 1283 558 1304 21 21 136 70 463 195
536 204 599 228 604 223 9 -9 -17 -171 -28 -174 -6 -1 -29 -8 -51 -14 -56 -15
-123 -75 -151 -135 -98 -209 122 -430 331 -332 55 25 110 81 131 132 20 48 17
151 -5 201 -11 23 -37 59 -58 79 l-39 37 12 94 c7 52 14 97 17 99 7 8 88 -58
117 -96 43 -55 490 -1031 490 -1069 0 -30 -1015 -2498 -1063 -2583 -23 -42
-84 -78 -131 -78 -15 0 -246 90 -511 200 -266 110 -495 200 -510 200 -56 0
-89 -85 -47 -123 10 -9 236 -107 502 -217 528 -220 550 -226 651 -196 64 18
138 71 168 119 12 19 70 153 130 298 l109 263 39 -84 c220 -474 235 -500 327
-548 45 -23 62 -27 141 -26 79 0 98 4 155 31 36 17 99 46 140 66 230 108 654
306 1010 473 351 163 411 195 451 234 82 82 110 206 70 315 -36 100 -814 1750
-833 1768 -26 22 -80 22 -101 -1 -10 -10 -17 -33 -17 -50 0 -20 145 -340 410
-907 313 -669 410 -884 410 -913 0 -57 -37 -112 -93 -140 -27 -13 -385 -182
-795 -374 -826 -388 -817 -384 -891 -335 -27 18 -48 44 -67 84 -137 290 -274
587 -274 595 0 5 169 418 376 916 207 499 381 931 387 960 8 38 8 66 0 105 -6
29 -104 254 -218 500 -114 246 -206 450 -203 452 5 5 526 -158 556 -174 33
-17 53 -53 156 -276 54 -116 108 -220 122 -232 42 -38 92 -27 114 26 11 27 8
38 -33 128 -181 395 -212 445 -296 488 -26 12 -189 68 -364 123 -175 55 -321
103 -324 105 -3 3 8 25 25 49 123 179 289 497 320 614 24 87 28 195 12 256
-18 62 -70 129 -128 161 -63 35 -156 45 -213 24z m135 -152 c45 -22 66 -62 66
-130 0 -83 -16 -137 -82 -275 -67 -141 -124 -243 -210 -377 l-59 -92 -50 24
c-28 12 -52 25 -55 27 -7 8 56 364 86 484 44 174 115 299 192 337 41 21 71 21
112 2z m-505 -1321 c26 -22 31 -33 31 -71 0 -56 -41 -103 -89 -103 -97 0 -148
105 -82 171 39 39 96 40 140 3z"/>
<path d="M1700 2805 c-261 -59 -475 -227 -586 -460 -57 -120 -74 -189 -81
-320 -12 -235 64 -443 225 -617 239 -257 634 -335 957 -189 164 75 317 220
399 378 41 82 -10 157 -88 127 -9 -3 -37 -42 -63 -86 -60 -100 -174 -210 -270
-261 -292 -153 -660 -80 -858 171 -173 218 -202 501 -78 752 53 106 188 241
294 293 281 138 588 89 804 -128 121 -121 174 -234 199 -425 10 -78 18 -107
32 -117 29 -21 72 -16 101 13 24 24 25 28 18 102 -20 217 -113 412 -261 553
-103 97 -191 148 -334 194 -107 34 -305 44 -410 20z"/>
<path d="M1942 2419 c-12 -11 -28 -40 -34 -65 -12 -43 -13 -44 -53 -44 -53 -1
-114 -29 -149 -71 -37 -44 -47 -73 -47 -137 0 -98 66 -172 181 -202 65 -17 90
-36 90 -68 0 -57 -35 -65 -142 -30 -48 16 -68 27 -68 39 0 31 -39 69 -71 69
-45 0 -67 -16 -78 -55 -18 -67 17 -136 84 -166 l44 -19 -15 -49 c-16 -56 -8
-93 25 -110 53 -29 99 1 122 77 12 40 14 42 53 42 181 1 263 225 129 352 -16
15 -62 39 -102 53 -88 30 -101 39 -101 74 0 56 26 61 136 29 62 -18 74 -24 74
-43 0 -57 88 -87 130 -45 27 27 27 104 1 144 -22 33 -69 66 -95 66 -14 0 -17
5 -11 23 3 12 9 43 12 68 5 41 2 48 -22 67 -35 28 -65 28 -93 1z"/>
<path d="M3809 2240 c-9 -5 -22 -23 -29 -39 -14 -35 -42 31 254 -601 126 -267
237 -493 248 -502 44 -39 118 -4 118 54 0 36 -476 1048 -507 1076 -25 23 -57
28 -84 12z"/>
<path d="M3466 2049 c-17 -13 -26 -30 -26 -48 0 -39 475 -1050 507 -1078 48
-44 118 -15 116 48 0 41 -474 1055 -505 1082 -27 23 -59 22 -92 -4z"/>
</g>
</svg>
